<svg xmlns="http://www.w3.org/2000/svg" version="1.1" xmlns:xlink="http://www.w3.org/1999/xlink" xmlns:svgjs="http://svgjs.dev/svgjs" width="1000" height="1000" viewBox="0 0 1000 1000"><rect width="1000" height="1000" fill="#398378"></rect><g transform="matrix(0.7,0,0,0.7,149.57575757575756,390.07723377655196)"><svg viewBox="0 0 396 125" data-background-color="#398378" preserveAspectRatio="xMidYMid meet" height="315" width="1000" xmlns="http://www.w3.org/2000/svg" xmlns:xlink="http://www.w3.org/1999/xlink"><g id="tight-bounds" transform="matrix(1,0,0,1,0.2400000000000091,-0.1855066760498687)"><svg viewBox="0 0 395.52 125.3707292505653" height="125.3707292505653" width="395.52"><g><svg viewBox="0 0 672.3249337011782 213.1115170698187" height="125.3707292505653" width="395.52"><g transform="matrix(1,0,0,1,276.80493370117824,8.61476460775215)"><svg viewBox="0 0 395.52 195.8819878543144" height="195.8819878543144" width="395.52"><g id="textblocktransform"><svg viewBox="0 0 395.52 195.8819878543144" height="195.8819878543144" width="395.52" id="textblock"><g><svg viewBox="0 0 395.52 134.90023685457126" height="134.90023685457126" width="395.52"><g transform="matrix(1,0,0,1,0,0)"><svg width="395.52" viewBox="2.2 -35.5 106.3 36" height="134.90023685457126" data-palette-color="#f8f4ee"><g class="wordmark-text-0" data-fill-palette-color="primary" id="text-0"><path d="M20.9 0.5Q15.6 0.5 11.33-1.83 7.05-4.15 4.63-8.25 2.2-12.35 2.2-17.5L2.2-17.5Q2.2-22.65 4.65-26.75 7.1-30.85 11.38-33.18 15.65-35.5 20.95-35.5L20.95-35.5Q25.25-35.5 28.8-34 32.35-32.5 34.8-29.65L34.8-29.65 30.6-25.7Q26.8-29.8 21.25-29.8L21.25-29.8Q17.65-29.8 14.8-28.23 11.95-26.65 10.35-23.85 8.75-21.05 8.75-17.5L8.75-17.5Q8.75-13.95 10.35-11.15 11.95-8.35 14.8-6.78 17.65-5.2 21.25-5.2L21.25-5.2Q26.8-5.2 30.6-9.35L30.6-9.35 34.8-5.35Q32.35-2.5 28.78-1 25.2 0.5 20.9 0.5L20.9 0.5ZM57.25 0.5Q51.95 0.5 47.67-1.83 43.4-4.15 40.97-8.25 38.55-12.35 38.55-17.5L38.55-17.5Q38.55-22.65 41-26.75 43.45-30.85 47.72-33.18 52-35.5 57.3-35.5L57.3-35.5Q61.6-35.5 65.15-34 68.7-32.5 71.15-29.65L71.15-29.65 66.95-25.7Q63.15-29.8 57.6-29.8L57.6-29.8Q54-29.8 51.15-28.23 48.3-26.65 46.7-23.85 45.1-21.05 45.1-17.5L45.1-17.5Q45.1-13.95 46.7-11.15 48.3-8.35 51.15-6.78 54-5.2 57.6-5.2L57.6-5.2Q63.15-5.2 66.95-9.35L66.95-9.35 71.15-5.35Q68.7-2.5 65.12-1 61.55 0.5 57.25 0.5L57.25 0.5ZM102.05-35L108.5-35 108.5 0 103.15 0 83.85-23.7 83.85 0 77.4 0 77.4-35 82.75-35 102.05-11.3 102.05-35Z" fill="#f8f4ee" data-fill-palette-color="primary"></path></g></svg></g></svg></g><g transform="matrix(1,0,0,1,0,166.74694517025102)"><svg viewBox="0 0 300.5952 29.13504268406337" height="29.13504268406337" width="300.5952"><g transform="matrix(1,0,0,1,0,0)"><svg width="300.5952" viewBox="1.35 -37.1 482.82 46.8" height="29.13504268406337" data-palette-color="#adbfb8"><path d="M49.65-35L55.85-35 44.25 0 37.35 0 28.7-25.9 19.9 0 12.95 0 1.35-35 8.1-35 16.8-8.4 25.85-35 31.85-35 40.7-8.25 49.65-35ZM83.65-13.2Q83.65-12.55 83.55-11.35L83.55-11.35 62.6-11.35Q63.15-8.4 65.47-6.68 67.8-4.95 71.25-4.95L71.25-4.95Q75.65-4.95 78.5-7.85L78.5-7.85 81.85-4Q80.05-1.85 77.3-0.75 74.55 0.35 71.1 0.35L71.1 0.35Q66.7 0.35 63.35-1.4 60-3.15 58.17-6.28 56.35-9.4 56.35-13.35L56.35-13.35Q56.35-17.25 58.12-20.38 59.9-23.5 63.05-25.25 66.2-27 70.15-27L70.15-27Q74.05-27 77.12-25.28 80.2-23.55 81.92-20.43 83.65-17.3 83.65-13.2L83.65-13.2ZM70.15-22Q67.15-22 65.07-20.23 63-18.45 62.55-15.5L62.55-15.5 77.7-15.5Q77.3-18.4 75.25-20.2 73.2-22 70.15-22L70.15-22ZM104.45-27Q108.35-27 111.42-25.3 114.5-23.6 116.25-20.5 118-17.4 118-13.35L118-13.35Q118-9.3 116.25-6.18 114.5-3.05 111.42-1.35 108.35 0.35 104.45 0.35L104.45 0.35Q101.7 0.35 99.42-0.6 97.15-1.55 95.6-3.45L95.6-3.45 95.6 0 89.65 0 89.65-37.1 95.9-37.1 95.9-23.45Q97.5-25.2 99.67-26.1 101.85-27 104.45-27L104.45-27ZM103.75-5Q107.2-5 109.42-7.3 111.65-9.6 111.65-13.35L111.65-13.35Q111.65-17.1 109.42-19.4 107.2-21.7 103.75-21.7L103.75-21.7Q101.5-21.7 99.7-20.68 97.9-19.65 96.85-17.75 95.8-15.85 95.8-13.35L95.8-13.35Q95.8-10.85 96.85-8.95 97.9-7.05 99.7-6.03 101.5-5 103.75-5L103.75-5ZM138.34 0L138.34-35 153.64-35Q159.24-35 163.59-32.83 167.94-30.65 170.34-26.68 172.74-22.7 172.74-17.5L172.74-17.5Q172.74-12.3 170.34-8.33 167.94-4.35 163.59-2.18 159.24 0 153.64 0L153.64 0 138.34 0ZM144.84-5.5L153.34-5.5Q157.19-5.5 160.12-6.98 163.04-8.45 164.62-11.18 166.19-13.9 166.19-17.5L166.19-17.5Q166.19-21.1 164.62-23.83 163.04-26.55 160.12-28.03 157.19-29.5 153.34-29.5L153.34-29.5 144.84-29.5 144.84-5.5ZM204.14-13.2Q204.14-12.55 204.04-11.35L204.04-11.35 183.09-11.35Q183.64-8.4 185.96-6.68 188.29-4.95 191.74-4.95L191.74-4.95Q196.14-4.95 198.99-7.85L198.99-7.85 202.34-4Q200.54-1.85 197.79-0.75 195.04 0.35 191.59 0.35L191.59 0.35Q187.19 0.35 183.84-1.4 180.49-3.15 178.66-6.28 176.84-9.4 176.84-13.35L176.84-13.35Q176.84-17.25 178.61-20.38 180.39-23.5 183.54-25.25 186.69-27 190.64-27L190.64-27Q194.54-27 197.61-25.28 200.69-23.55 202.41-20.43 204.14-17.3 204.14-13.2L204.14-13.2ZM190.64-22Q187.64-22 185.56-20.23 183.49-18.45 183.04-15.5L183.04-15.5 198.19-15.5Q197.79-18.4 195.74-20.2 193.69-22 190.64-22L190.64-22ZM228.64-26.7L234.64-26.7 223.19 0 216.74 0 205.29-26.7 211.79-26.7 220.09-6.9 228.64-26.7ZM262.88-13.2Q262.88-12.55 262.78-11.35L262.78-11.35 241.83-11.35Q242.38-8.4 244.71-6.68 247.03-4.95 250.48-4.95L250.48-4.95Q254.88-4.95 257.73-7.85L257.73-7.85 261.08-4Q259.28-1.85 256.53-0.75 253.78 0.35 250.33 0.35L250.33 0.35Q245.93 0.35 242.58-1.4 239.23-3.15 237.41-6.28 235.58-9.4 235.58-13.35L235.58-13.35Q235.58-17.25 237.36-20.38 239.13-23.5 242.28-25.25 245.43-27 249.38-27L249.38-27Q253.28-27 256.36-25.28 259.43-23.55 261.16-20.43 262.88-17.3 262.88-13.2L262.88-13.2ZM249.38-22Q246.38-22 244.31-20.23 242.23-18.45 241.78-15.5L241.78-15.5 256.93-15.5Q256.53-18.4 254.48-20.2 252.43-22 249.38-22L249.38-22ZM268.88 0L268.88-37.1 275.13-37.1 275.13 0 268.88 0ZM295.33 0.35Q291.28 0.35 288.03-1.4 284.78-3.15 282.95-6.28 281.13-9.4 281.13-13.35L281.13-13.35Q281.13-17.3 282.95-20.4 284.78-23.5 288.03-25.25 291.28-27 295.33-27L295.33-27Q299.43-27 302.68-25.25 305.93-23.5 307.75-20.4 309.58-17.3 309.58-13.35L309.58-13.35Q309.58-9.4 307.75-6.28 305.93-3.15 302.68-1.4 299.43 0.35 295.33 0.35L295.33 0.35ZM295.33-5Q298.78-5 301.03-7.3 303.28-9.6 303.28-13.35L303.28-13.35Q303.28-17.1 301.03-19.4 298.78-21.7 295.33-21.7L295.33-21.7Q291.88-21.7 289.65-19.4 287.43-17.1 287.43-13.35L287.43-13.35Q287.43-9.6 289.65-7.3 291.88-5 295.33-5L295.33-5ZM330.38-27Q334.28-27 337.35-25.3 340.43-23.6 342.18-20.5 343.93-17.4 343.93-13.35L343.93-13.35Q343.93-9.3 342.18-6.18 340.43-3.05 337.35-1.35 334.28 0.35 330.38 0.35L330.38 0.35Q324.98 0.35 321.83-3.25L321.83-3.25 321.83 9.7 315.58 9.7 315.58-26.7 321.53-26.7 321.53-23.2Q323.08-25.1 325.35-26.05 327.63-27 330.38-27L330.38-27ZM329.68-5Q333.13-5 335.35-7.3 337.58-9.6 337.58-13.35L337.58-13.35Q337.58-17.1 335.35-19.4 333.13-21.7 329.68-21.7L329.68-21.7Q327.43-21.7 325.63-20.68 323.83-19.65 322.78-17.75 321.73-15.85 321.73-13.35L321.73-13.35Q321.73-10.85 322.78-8.95 323.83-7.05 325.63-6.03 327.43-5 329.68-5L329.68-5ZM383.57-27Q388.62-27 391.57-24.08 394.52-21.15 394.52-15.3L394.52-15.3 394.52 0 388.27 0 388.27-14.5Q388.27-18 386.72-19.78 385.17-21.55 382.27-21.55L382.27-21.55Q379.12-21.55 377.22-19.48 375.32-17.4 375.32-13.55L375.32-13.55 375.32 0 369.07 0 369.07-14.5Q369.07-18 367.52-19.78 365.97-21.55 363.07-21.55L363.07-21.55Q359.87-21.55 358-19.5 356.12-17.45 356.12-13.55L356.12-13.55 356.12 0 349.87 0 349.87-26.7 355.82-26.7 355.82-23.3Q357.32-25.1 359.57-26.05 361.82-27 364.57-27L364.57-27Q367.57-27 369.9-25.88 372.22-24.75 373.57-22.55L373.57-22.55Q375.22-24.65 377.82-25.83 380.42-27 383.57-27L383.57-27ZM427.87-13.2Q427.87-12.55 427.77-11.35L427.77-11.35 406.82-11.35Q407.37-8.4 409.7-6.68 412.02-4.95 415.47-4.95L415.47-4.95Q419.87-4.95 422.72-7.85L422.72-7.85 426.07-4Q424.27-1.85 421.52-0.75 418.77 0.35 415.32 0.35L415.32 0.35Q410.92 0.35 407.57-1.4 404.22-3.15 402.4-6.28 400.57-9.4 400.57-13.35L400.57-13.35Q400.57-17.25 402.35-20.38 404.12-23.5 407.27-25.25 410.42-27 414.37-27L414.37-27Q418.27-27 421.35-25.28 424.42-23.55 426.15-20.43 427.87-17.3 427.87-13.2L427.87-13.2ZM414.37-22Q411.37-22 409.3-20.23 407.22-18.45 406.77-15.5L406.77-15.5 421.92-15.5Q421.52-18.4 419.47-20.2 417.42-22 414.37-22L414.37-22ZM449.02-27Q454.07-27 457.12-24.05 460.17-21.1 460.17-15.3L460.17-15.3 460.17 0 453.92 0 453.92-14.5Q453.92-18 452.27-19.78 450.62-21.55 447.57-21.55L447.57-21.55Q444.12-21.55 442.12-19.48 440.12-17.4 440.12-13.5L440.12-13.5 440.12 0 433.87 0 433.87-26.7 439.82-26.7 439.82-23.25Q441.37-25.1 443.72-26.05 446.07-27 449.02-27L449.02-27ZM482.42-5.9L484.17-1.45Q483.07-0.55 481.49-0.1 479.92 0.35 478.17 0.35L478.17 0.35Q473.77 0.35 471.37-1.95 468.97-4.25 468.97-8.65L468.97-8.65 468.97-21.5 464.57-21.5 464.57-26.5 468.97-26.5 468.97-32.6 475.22-32.6 475.22-26.5 482.37-26.5 482.37-21.5 475.22-21.5 475.22-8.8Q475.22-6.85 476.17-5.83 477.12-4.8 478.92-4.8L478.92-4.8Q481.02-4.8 482.42-5.9L482.42-5.9Z" opacity="1" transform="matrix(1,0,0,1,0,0)" fill="#adbfb8" class="slogan-text-1" data-fill-palette-color="secondary" id="text-1"></path></svg></g></svg></g></svg></g></svg></g><g><svg viewBox="0 0 213.1115170698187 213.1115170698187" height="213.1115170698187" width="213.1115170698187"><g><svg></svg></g><g id="icon-0"><svg viewBox="0 0 213.1115170698187 213.1115170698187" height="213.1115170698187" width="213.1115170698187"><g><path d="M0 106.556c0-58.849 47.707-106.556 106.556-106.556 58.849 0 106.556 47.707 106.556 106.556 0 58.849-47.707 106.556-106.556 106.556-58.849 0-106.556-47.707-106.556-106.556zM106.556 200.946c52.13 0 94.39-42.26 94.39-94.39 0-52.13-42.26-94.39-94.39-94.391-52.13 0-94.39 42.26-94.391 94.391 0 52.13 42.26 94.39 94.391 94.39z" data-fill-palette-color="accent" fill="#c9efc7" stroke="transparent"></path></g><g transform="matrix(1,0,0,1,57.94261722630365,57.94261722630365)"><svg viewBox="0 0 97.22628261721138 97.22628261721138" height="97.22628261721138" width="97.22628261721138"><g><svg xmlns:x="http://ns.adobe.com/Extensibility/1.0/" xmlns:i="http://ns.adobe.com/AdobeIllustrator/10.0/" xmlns:graph="http://ns.adobe.com/Graphs/1.0/" xmlns="http://www.w3.org/2000/svg" xmlns:xlink="http://www.w3.org/1999/xlink" version="1.1" x="0" y="0" viewBox="5 5 54 54" enable-background="new 0 0 64 64" xml:space="preserve" height="97.22628261721138" width="97.22628261721138" class="icon-z$-0" data-fill-palette-color="accent" id="z$-0"><g fill="#c9efc7" data-fill-palette-color="accent"><path d="M32 5C17.112 5 5 17.112 5 32s12.112 27 27 27 27-12.112 27-27S46.888 5 32 5zM51.77 47.275c-2.293-1.221-5.075-2.225-8.159-2.948 0.822-3.401 1.31-7.233 1.378-11.327h11.986C56.763 38.362 54.854 43.294 51.77 47.275zM7.025 33h4.144c0.428 1.357 1.684 2.351 3.181 2.351 1.537 0 2.822-1.046 3.215-2.459C17.698 32.956 17.842 33 18 33h1.012c0.068 4.034 0.542 7.816 1.343 11.181-3.115 0.679-5.946 1.638-8.326 2.838C9.062 43.083 7.233 38.247 7.025 33zM12.076 16.921c2.31 1.303 5.112 2.353 8.226 3.115-0.77 3.31-1.224 7.016-1.29 10.964H18c-0.158 0-0.302 0.044-0.435 0.109-0.393-1.414-1.678-2.459-3.215-2.459-1.497 0-2.753 0.993-3.181 2.351H7.025C7.234 25.726 9.082 20.868 12.076 16.921zM32 25c0.551 0 1 0.449 1 1s-0.449 1-1 1-1-0.449-1-1S31.449 25 32 25zM33 28.816c1.161-0.415 2-1.514 2-2.816s-0.839-2.401-2-2.816v-1.732c3.021-0.016 5.976-0.278 8.766-0.749 0.72 3.132 1.155 6.626 1.223 10.297H33V28.816zM33 19.452V7.113c3.437 0.743 6.471 5.258 8.271 11.65C38.643 19.196 35.854 19.436 33 19.452zM31 7.113v12.303c-2.863-0.087-5.625-0.39-8.203-0.891C24.605 12.259 27.607 7.846 31 7.113zM31 21.432v1.752c-1.162 0.415-2 1.514-2 2.816s0.838 2.401 2 2.815V31h-9.988c0.069-3.76 0.523-7.335 1.275-10.526C25.028 21.015 27.967 21.343 31 21.432zM15.701 32c0 0.745-0.606 1.351-1.351 1.351S13 32.745 13 32s0.606-1.351 1.351-1.351S15.701 31.255 15.701 32zM21.012 33H31v10.018c-2.985 0.034-5.9 0.304-8.65 0.781C21.56 40.541 21.083 36.866 21.012 33zM31 45.017v11.87c-3.347-0.723-6.313-5.023-8.129-11.152C25.453 45.297 28.191 45.05 31 45.017zM33 56.887v-11.86c0.064 0.002 0.13 0.002 0.193 0.004C33.616 46.177 34.709 47 36 47c1.125 0 2.095-0.629 2.608-1.548 0.846 0.111 1.676 0.241 2.489 0.392C39.279 51.916 36.327 56.168 33 56.887zM36 45c-0.552 0-1-0.448-1-1s0.448-1 1-1 1 0.448 1 1S36.552 45 36 45zM38.947 43.481C38.7 42.074 37.477 41 36 41c-1.313 0-2.42 0.854-2.825 2.03-0.058-0.001-0.116-0.002-0.175-0.003V33h9.988c-0.071 3.91-0.56 7.623-1.365 10.908C40.748 43.742 39.855 43.602 38.947 43.481zM44.988 31c-0.064-3.829-0.493-7.432-1.222-10.666 3.201-0.68 6.104-1.659 8.542-2.887 2.766 3.849 4.467 8.51 4.666 13.552H44.988zM51.047 15.833c-2.235 1.081-4.864 1.953-7.767 2.563-1.282-4.651-3.211-8.394-5.552-10.727C43.007 8.913 47.645 11.83 51.047 15.833zM26.272 7.67c-2.29 2.282-4.186 5.909-5.468 10.419-2.8-0.683-5.322-1.606-7.424-2.749C16.739 11.59 21.211 8.861 26.272 7.67zM13.338 48.611c2.173-1.047 4.719-1.893 7.522-2.498 1.281 4.417 3.156 7.969 5.412 10.217C21.189 55.134 16.702 52.386 13.338 48.611zM37.729 56.33c2.23-2.223 4.088-5.723 5.367-10.071 2.77 0.646 5.274 1.522 7.361 2.585C47.117 52.5 42.707 55.158 37.729 56.33z" fill="#c9efc7" data-fill-palette-color="accent"></path></g></svg><g></g></g></svg></g></svg></g></svg></g></svg></g><defs></defs></svg><rect width="395.52" height="125.3707292505653" fill="none" stroke="none" visibility="hidden"></rect></g></svg></g></svg>