<svg xmlns="http://www.w3.org/2000/svg" version="1.1" xmlns:xlink="http://www.w3.org/1999/xlink" xmlns:svgjs="http://svgjs.dev/svgjs" width="1000" height="1000" viewBox="0 0 1000 1000"><rect width="1000" height="1000" fill="#000000"></rect><g transform="matrix(0.7,0,0,0.7,149.57575757575756,282.1265587044535)"><svg viewBox="0 0 396 247" data-background-color="#0b022d" preserveAspectRatio="xMidYMid meet" height="623" width="1000" xmlns="http://www.w3.org/2000/svg" xmlns:xlink="http://www.w3.org/1999/xlink"><defs></defs><g id="tight-bounds" transform="matrix(1,0,0,1,0.2400000000000091,-0.09999999999999432)"><svg viewBox="0 0 395.52 247.2" height="247.2" width="395.52"><g><svg></svg></g><g><svg viewBox="0 0 395.52 247.2" height="247.2" width="395.52"><g transform="matrix(2.5541666666666667, 0, 0, 2.5541666666666667, 91.76208333333332, 1)"><svg xmlns="http://www.w3.org/2000/svg" xmlns:xlink="http://www.w3.org/1999/xlink" version="1.1" x="0" y="0" viewBox="9 1 83 96" enable-background="new 0 0 100 100" xml:space="preserve" height="96" width="83" class="icon-none" data-fill-palette-color="accent" id="none"><g fill="#ee7ddc" data-fill-palette-color="accent"><path fill="#ffffff" d="M71.3 10.01C57.831 10.01 50.55 1 50.55 1s-7.306 9.01-20.774 9.01C17.371 10.01 9 2.528 9 2.528v48.928C9.378 83.682 50.5 97 50.5 97S92 83.682 92 51.456V2.528C92 2.528 83.703 10.01 71.3 10.01z" data-fill-palette-color="accent"></path></g></svg></g><rect width="231.5860162728125" height="231.136389384944" fill="#0b022d" y="8.03180530752799" x="81.96699186359375" data-fill-palette-color="quaternary"></rect><g transform="matrix(1,0,0,1,92.49362896690342,37.08)"><svg viewBox="0 0 210.53274206619315 173.04" height="173.04" width="210.53274206619315"><g><svg viewBox="0 0 210.53274206619315 173.04" height="173.04" width="210.53274206619315"><g><svg viewBox="0 0 294.24329621284403 241.84295267793635" height="173.04" width="210.53274206619315"><g><svg viewBox="0 0 294.24329621284403 241.84295267793635" height="241.84295267793635" width="294.24329621284403"><g><svg viewBox="0 0 294.24329621284403 241.84295267793635" height="241.84295267793635" width="294.24329621284403"><g><svg viewBox="0 0 294.24329621284403 171.9706128" height="171.9706128" width="294.24329621284403"><g transform="matrix(1,0,0,1,0,0)"><svg width="294.24329621284403" viewBox="1.75 -32.099998474121094 55.95000076293945 32.69999694824219" height="171.9706128" data-palette-color="#f7fff7"><path d="M25.9 0L24.95 0 24.9-0.7Q24.85-1.75 24.1-1.75L24.1-1.75Q23.7-1.75 22.65-1.2L22.65-1.2Q19.4 0.6 16.1 0.6L16.1 0.6Q9.8 0.6 5.78-3.75 1.75-8.1 1.75-15.73 1.75-23.35 5.73-27.73 9.7-32.1 16.1-32.1L16.1-32.1Q19.35-32.1 22.6-30.45L22.6-30.45Q23.65-29.9 24.1-29.9L24.1-29.9Q24.85-29.9 24.9-30.95L24.9-30.95 24.95-31.8 25.9-31.8 25.9-23.15 25-23.15Q24.55-27 22.13-28.83 19.7-30.65 16.1-30.65L16.1-30.65Q11.55-30.65 8.78-26.65 6-22.65 6-15.7 6-8.75 8.8-4.8 11.6-0.85 16.1-0.85L16.1-0.85Q19.7-0.85 22.13-2.68 24.55-4.5 25-8.35L25-8.35 25.9-8.35 25.9 0ZM44.25-30.65L44.25-30.65Q39.7-30.65 36.92-26.65 34.15-22.65 34.15-15.7 34.15-8.75 36.95-4.8 39.75-0.85 43.97-0.85 48.2-0.85 49.87-3.03 51.55-5.2 51.55-9.4L51.55-9.4 51.55-11.4Q51.55-12 50.85-12L50.85-12 47.5-12 47.5-12.9 57.7-12.9 57.7-12 56.35-12Q55.65-12 55.65-11.4L55.65-11.4 55.65-9.6Q55.65-5.15 52.45-2.27 49.25 0.6 44.25 0.6L44.25 0.6Q37.95 0.6 33.92-3.75 29.9-8.1 29.9-15.73 29.9-23.35 33.87-27.73 37.85-32.1 44.25-32.1L44.25-32.1Q47.5-32.1 50.75-30.45L50.75-30.45Q51.8-29.9 52.25-29.9L52.25-29.9Q53-29.9 53.05-30.95L53.05-30.95 53.1-31.8 54.05-31.8 54.05-23.15 53.15-23.15Q52.7-27 50.27-28.83 47.85-30.65 44.25-30.65Z" opacity="1" transform="matrix(1,0,0,1,0,0)" fill="#ffffff" class="undefined-text-0" data-fill-palette-color="primary" id="text-0"></path></svg></g></svg></g><g transform="matrix(1,0,0,1,0,212.5687471873728)"><svg viewBox="0 0 294.24329621284403 29.274205490563563" height="29.274205490563563" width="294.24329621284403"><g transform="matrix(1,0,0,1,0,0)"><svg width="294.24329621284403" viewBox="1.850000023841858 -37.099998474121094 470.3699951171875 46.79999923706055" height="29.274205490563563" data-palette-color="#f7fff7"><path d="M50.2-35L53.75-35 41.95 0 38.05 0 27.8-29.85 17.5 0 13.65 0 1.85-35 5.65-35 15.75-4.9 26.2-35 29.65-35 39.95-4.75 50.2-35ZM80.7-13.15L80.65-12.05 58.65-12.05Q58.95-7.95 61.8-5.43 64.65-2.9 69-2.9L69-2.9Q71.45-2.9 73.5-3.78 75.55-4.65 77.05-6.35L77.05-6.35 79.05-4.05Q77.3-1.95 74.67-0.85 72.05 0.25 68.9 0.25L68.9 0.25Q64.85 0.25 61.72-1.48 58.6-3.2 56.85-6.25 55.1-9.3 55.1-13.15L55.1-13.15Q55.1-17 56.77-20.05 58.45-23.1 61.37-24.8 64.3-26.5 67.95-26.5L67.95-26.5Q71.6-26.5 74.5-24.8 77.4-23.1 79.05-20.08 80.7-17.05 80.7-13.15L80.7-13.15ZM67.95-23.45Q64.15-23.45 61.57-21.03 59-18.6 58.65-14.7L58.65-14.7 77.3-14.7Q76.95-18.6 74.37-21.03 71.8-23.45 67.95-23.45L67.95-23.45ZM101.5-26.5Q105.2-26.5 108.2-24.83 111.2-23.15 112.9-20.1 114.59-17.05 114.59-13.15L114.59-13.15Q114.59-9.25 112.9-6.2 111.2-3.15 108.2-1.45 105.2 0.25 101.5 0.25L101.5 0.25Q98.2 0.25 95.57-1.15 92.95-2.55 91.34-5.2L91.34-5.2 91.34 0 87.95 0 87.95-37.1 91.5-37.1 91.5-21.3Q93.15-23.85 95.72-25.18 98.3-26.5 101.5-26.5L101.5-26.5ZM101.25-2.9Q104-2.9 106.25-4.17 108.5-5.45 109.77-7.8 111.05-10.15 111.05-13.15L111.05-13.15Q111.05-16.15 109.77-18.5 108.5-20.85 106.25-22.13 104-23.4 101.25-23.4L101.25-23.4Q98.45-23.4 96.22-22.13 94-20.85 92.72-18.5 91.45-16.15 91.45-13.15L91.45-13.15Q91.45-10.15 92.72-7.8 94-5.45 96.22-4.17 98.45-2.9 101.25-2.9L101.25-2.9ZM135.69 0L135.69-35 149.94-35Q155.49-35 159.74-32.77 163.99-30.55 166.34-26.58 168.69-22.6 168.69-17.5L168.69-17.5Q168.69-12.4 166.34-8.43 163.99-4.45 159.74-2.23 155.49 0 149.94 0L149.94 0 135.69 0ZM139.39-3.2L149.74-3.2Q154.34-3.2 157.79-5.03 161.24-6.85 163.14-10.08 165.04-13.3 165.04-17.5L165.04-17.5Q165.04-21.7 163.14-24.93 161.24-28.15 157.79-29.98 154.34-31.8 149.74-31.8L149.74-31.8 139.39-31.8 139.39-3.2ZM199.19-13.15L199.14-12.05 177.14-12.05Q177.44-7.95 180.29-5.43 183.14-2.9 187.49-2.9L187.49-2.9Q189.94-2.9 191.99-3.78 194.04-4.65 195.54-6.35L195.54-6.35 197.54-4.05Q195.79-1.95 193.16-0.85 190.54 0.25 187.39 0.25L187.39 0.25Q183.34 0.25 180.21-1.48 177.09-3.2 175.34-6.25 173.59-9.3 173.59-13.15L173.59-13.15Q173.59-17 175.26-20.05 176.94-23.1 179.86-24.8 182.79-26.5 186.44-26.5L186.44-26.5Q190.09-26.5 192.99-24.8 195.89-23.1 197.54-20.08 199.19-17.05 199.19-13.15L199.19-13.15ZM186.44-23.45Q182.64-23.45 180.06-21.03 177.49-18.6 177.14-14.7L177.14-14.7 195.79-14.7Q195.44-18.6 192.86-21.03 190.29-23.45 186.44-23.45L186.44-23.45ZM224.54-26.3L228.04-26.3 216.34 0 212.69 0 201.04-26.3 204.74-26.3 214.59-3.9 224.54-26.3ZM255.23-13.15L255.18-12.05 233.18-12.05Q233.48-7.95 236.33-5.43 239.18-2.9 243.53-2.9L243.53-2.9Q245.98-2.9 248.03-3.78 250.08-4.65 251.58-6.35L251.58-6.35 253.58-4.05Q251.83-1.95 249.21-0.85 246.58 0.25 243.43 0.25L243.43 0.25Q239.38 0.25 236.26-1.48 233.13-3.2 231.38-6.25 229.63-9.3 229.63-13.15L229.63-13.15Q229.63-17 231.31-20.05 232.98-23.1 235.91-24.8 238.83-26.5 242.48-26.5L242.48-26.5Q246.13-26.5 249.03-24.8 251.93-23.1 253.58-20.08 255.23-17.05 255.23-13.15L255.23-13.15ZM242.48-23.45Q238.68-23.45 236.11-21.03 233.53-18.6 233.18-14.7L233.18-14.7 251.83-14.7Q251.48-18.6 248.91-21.03 246.33-23.45 242.48-23.45L242.48-23.45ZM262.48 0L262.48-37.1 266.03-37.1 266.03 0 262.48 0ZM286.68 0.25Q282.88 0.25 279.83-1.48 276.78-3.2 275.03-6.25 273.28-9.3 273.28-13.15L273.28-13.15Q273.28-17 275.03-20.05 276.78-23.1 279.83-24.8 282.88-26.5 286.68-26.5L286.68-26.5Q290.48-26.5 293.53-24.8 296.58-23.1 298.3-20.05 300.03-17 300.03-13.15L300.03-13.15Q300.03-9.3 298.3-6.25 296.58-3.2 293.53-1.48 290.48 0.25 286.68 0.25L286.68 0.25ZM286.68-2.9Q289.48-2.9 291.7-4.17 293.93-5.45 295.18-7.8 296.43-10.15 296.43-13.15L296.43-13.15Q296.43-16.15 295.18-18.5 293.93-20.85 291.7-22.13 289.48-23.4 286.68-23.4L286.68-23.4Q283.88-23.4 281.65-22.13 279.43-20.85 278.15-18.5 276.88-16.15 276.88-13.15L276.88-13.15Q276.88-10.15 278.15-7.8 279.43-5.45 281.65-4.17 283.88-2.9 286.68-2.9L286.68-2.9ZM320.83-26.5Q324.53-26.5 327.53-24.83 330.53-23.15 332.23-20.1 333.93-17.05 333.93-13.15L333.93-13.15Q333.93-9.2 332.23-6.15 330.53-3.1 327.55-1.43 324.58 0.25 320.83 0.25L320.83 0.25Q317.63 0.25 315.05-1.07 312.48-2.4 310.83-4.95L310.83-4.95 310.83 9.7 307.28 9.7 307.28-26.3 310.68-26.3 310.68-21.1Q312.28-23.7 314.9-25.1 317.53-26.5 320.83-26.5L320.83-26.5ZM320.58-2.9Q323.33-2.9 325.58-4.17 327.83-5.45 329.1-7.8 330.38-10.15 330.38-13.15L330.38-13.15Q330.38-16.15 329.1-18.48 327.83-20.8 325.58-22.1 323.33-23.4 320.58-23.4L320.58-23.4Q317.78-23.4 315.55-22.1 313.33-20.8 312.05-18.48 310.78-16.15 310.78-13.15L310.78-13.15Q310.78-10.15 312.05-7.8 313.33-5.45 315.55-4.17 317.78-2.9 320.58-2.9L320.58-2.9ZM373.97-26.5Q378.92-26.5 381.75-23.65 384.57-20.8 384.57-15.25L384.57-15.25 384.57 0 381.02 0 381.02-14.9Q381.02-19 379.05-21.15 377.07-23.3 373.47-23.3L373.47-23.3Q369.37-23.3 367.02-20.78 364.67-18.25 364.67-13.8L364.67-13.8 364.67 0 361.12 0 361.12-14.9Q361.12-19 359.15-21.15 357.17-23.3 353.52-23.3L353.52-23.3Q349.47-23.3 347.1-20.78 344.72-18.25 344.72-13.8L344.72-13.8 344.72 0 341.17 0 341.17-26.3 344.57-26.3 344.57-21.5Q345.97-23.9 348.47-25.2 350.97-26.5 354.22-26.5L354.22-26.5Q357.52-26.5 359.95-25.1 362.37-23.7 363.57-20.95L363.57-20.95Q365.02-23.55 367.75-25.03 370.47-26.5 373.97-26.5L373.97-26.5ZM417.27-13.15L417.22-12.05 395.22-12.05Q395.52-7.95 398.37-5.43 401.22-2.9 405.57-2.9L405.57-2.9Q408.02-2.9 410.07-3.78 412.12-4.65 413.62-6.35L413.62-6.35 415.62-4.05Q413.87-1.95 411.25-0.85 408.62 0.25 405.47 0.25L405.47 0.25Q401.42 0.25 398.3-1.48 395.17-3.2 393.42-6.25 391.67-9.3 391.67-13.15L391.67-13.15Q391.67-17 393.35-20.05 395.02-23.1 397.95-24.8 400.87-26.5 404.52-26.5L404.52-26.5Q408.17-26.5 411.07-24.8 413.97-23.1 415.62-20.08 417.27-17.05 417.27-13.15L417.27-13.15ZM404.52-23.45Q400.72-23.45 398.15-21.03 395.57-18.6 395.22-14.7L395.22-14.7 413.87-14.7Q413.52-18.6 410.95-21.03 408.37-23.45 404.52-23.45L404.52-23.45ZM437.92-26.5Q442.87-26.5 445.79-23.63 448.72-20.75 448.72-15.25L448.72-15.25 448.72 0 445.17 0 445.17-14.9Q445.17-19 443.12-21.15 441.07-23.3 437.27-23.3L437.27-23.3Q433.02-23.3 430.54-20.78 428.07-18.25 428.07-13.8L428.07-13.8 428.07 0 424.52 0 424.52-26.3 427.92-26.3 427.92-21.45Q429.37-23.85 431.94-25.18 434.52-26.5 437.92-26.5L437.92-26.5ZM470.97-4.15L472.22-1.6Q471.22-0.7 469.74-0.23 468.27 0.25 466.67 0.25L466.67 0.25Q462.97 0.25 460.97-1.75 458.97-3.75 458.97-7.4L458.97-7.4 458.97-23.3 454.27-23.3 454.27-26.3 458.97-26.3 458.97-32.05 462.52-32.05 462.52-26.3 470.52-26.3 470.52-23.3 462.52-23.3 462.52-7.6Q462.52-5.25 463.69-4.03 464.87-2.8 467.07-2.8L467.07-2.8Q468.17-2.8 469.19-3.15 470.22-3.5 470.97-4.15L470.97-4.15Z" opacity="1" transform="matrix(1,0,0,1,0,0)" fill="#ffffff" class="undefined-text-1" data-fill-palette-color="secondary" id="text-1"></path></svg></g></svg></g></svg></g></svg></g><g></g></svg></g></svg></g></svg></g></svg></g></svg><rect width="395.52" height="247.2" fill="none" stroke="none" visibility="hidden"></rect></g></svg></g></svg>