<svg xmlns="http://www.w3.org/2000/svg" version="1.1" xmlns:xlink="http://www.w3.org/1999/xlink" xmlns:svgjs="http://svgjs.dev/svgjs" width="1000" height="1000" viewBox="0 0 1000 1000"><rect width="1000" height="1000" fill="#398378"></rect><g transform="matrix(0.7,0,0,0.7,149.5757575757575,367.85033992684714)"><svg viewBox="0 0 396 150" data-background-color="#398378" preserveAspectRatio="xMidYMid meet" height="378" width="1000" xmlns="http://www.w3.org/2000/svg" xmlns:xlink="http://www.w3.org/1999/xlink"><defs></defs><g id="tight-bounds" transform="matrix(1,0,0,1,0.24000000000003752,-0.08522671589969377)"><svg viewBox="0 0 395.5199999999999 150.17029377116864" height="150.17029377116864" width="395.5199999999999"><g><svg viewBox="0 0 799.2234838293772 303.44767737528935" height="150.17029377116864" width="395.5199999999999"><g transform="matrix(1,0,0,1,403.7034838293772,6.219585674593731)"><svg viewBox="0 0 395.52 291.0085060261019" height="291.0085060261019" width="395.52"><g><svg viewBox="0 0 395.52 291.0085060261019" height="291.0085060261019" width="395.52"><g><svg viewBox="0 0 395.52 212.337989575577" height="212.337989575577" width="395.52"><g transform="matrix(1,0,0,1,0,0)"><svg width="395.52" viewBox="1.350000023841858 -35.75 67.6500015258789 36.04999923706055" height="212.337989575577" data-palette-color="#31c48d"><g class="undefined-text-0" data-fill-palette-color="primary" id="text-0"><path d="M1.35-18.05L1.35-18.05Q1.35-21.3 2.55-24.43 3.75-27.55 6.05-30.1 8.35-32.65 11.65-34.18 14.95-35.7 19.15-35.7L19.15-35.7Q24.15-35.7 27.83-33.55 31.5-31.4 33.3-27.95L33.3-27.95 27-23.55Q26.2-25.45 24.88-26.5 23.55-27.55 21.98-27.98 20.4-28.4 18.95-28.4L18.95-28.4Q16.6-28.4 14.85-27.48 13.1-26.55 11.95-25 10.8-23.45 10.25-21.55 9.7-19.65 9.7-17.75L9.7-17.75Q9.7-15.65 10.35-13.7 11-11.75 12.23-10.25 13.45-8.75 15.2-7.88 16.95-7 19.05-7L19.05-7Q20.55-7 22.1-7.5 23.65-8 24.98-9.08 26.3-10.15 27-11.9L27-11.9 33.7-7.95Q32.65-5.35 30.25-3.5 27.85-1.65 24.83-0.68 21.8 0.3 18.85 0.3L18.85 0.3Q15 0.3 11.78-1.28 8.55-2.85 6.23-5.48 3.9-8.1 2.63-11.38 1.35-14.65 1.35-18.05ZM52.85 0.25L52.85 0.25Q49.35 0.25 46.25-1.07 43.15-2.4 40.8-4.83 38.45-7.25 37.12-10.58 35.8-13.9 35.8-18L35.8-18Q35.8-21.7 37.15-24.9 38.5-28.1 40.9-30.55 43.3-33 46.52-34.38 49.75-35.75 53.5-35.75L53.5-35.75Q58.4-35.75 62.15-33.65 65.9-31.55 67.7-28L67.7-28 61.6-23.4Q60.4-25.75 58.12-27.1 55.85-28.45 53.2-28.45L53.2-28.45Q51.2-28.45 49.52-27.63 47.85-26.8 46.62-25.33 45.4-23.85 44.75-21.9 44.1-19.95 44.1-17.7L44.1-17.7Q44.1-15.4 44.8-13.45 45.5-11.5 46.75-10.08 48-8.65 49.72-7.85 51.45-7.05 53.55-7.05L53.55-7.05Q56.1-7.05 58.42-8.33 60.75-9.6 62.7-12.1L62.7-12.1 62.7-4Q58.45 0.25 52.85 0.25ZM62.2 0L62.2-12.6 55.3-12.6 55.3-18.55 69-18.55 69 0 62.2 0Z" fill="#31c48d" data-fill-palette-color="primary"></path></g></svg></g></svg></g><g transform="matrix(1,0,0,1,0,262.46589280262094)"><svg viewBox="0 0 300.5952 28.54261322348094" height="28.54261322348094" width="300.5952"><g transform="matrix(1,0,0,1,0,0)"><svg width="300.5952" viewBox="0.25 -36.25 485.4700012207031 46.099998474121094" height="28.54261322348094" data-palette-color="#adbfb8"><path d="M41.7 0L29.55 0 25.1-20.95 24.9-20.95 20.45 0 8.3 0 0.25-34.4 11.75-34.4 15.7-14.9 15.9-14.9 19.8-34.4 30.7-34.4 34.85-14.9 35.05-14.9 38.75-34.4 49.75-34.4 41.7 0ZM65.35-27Q72.6-27 76.42-23.6 80.25-20.2 80.25-13.2L80.25-13.2 80.25-11.5 60.45-11.5Q60.45-8.65 61.72-7.2 63-5.75 65.75-5.75L65.75-5.75Q68.25-5.75 69.42-6.8 70.6-7.85 70.6-9.6L70.6-9.6 80.25-9.6Q80.25-4.8 76.6-2.1 72.95 0.6 65.95 0.6L65.95 0.6Q58.6 0.6 54.55-2.83 50.5-6.25 50.5-13.2L50.5-13.2Q50.5-20 54.45-23.5 58.4-27 65.35-27L65.35-27ZM65.75-20.65Q61.05-20.65 60.5-16.2L60.5-16.2 70.2-16.2Q70.2-18.25 69.02-19.45 67.85-20.65 65.75-20.65L65.75-20.65ZM94.55-23.95Q97.4-27 101.95-27L101.95-27Q107.3-27 110.2-23.53 113.1-20.05 113.1-13.25L113.1-13.25Q113.1-6.4 110.2-2.9 107.3 0.6 101.95 0.6L101.95 0.6Q96.45 0.6 93.55-3.75L93.55-3.75 92.7 0 84.6 0 84.6-36.25 94.55-36.25 94.55-23.95ZM98.85-19.65Q96.65-19.65 95.55-18.07 94.45-16.5 94.45-14L94.45-14 94.45-12.35Q94.45-9.85 95.55-8.3 96.65-6.75 98.85-6.75L98.85-6.75Q103.15-6.75 103.15-11.85L103.15-11.85 103.15-14.5Q103.15-19.65 98.85-19.65L98.85-19.65ZM150.14-34.4Q168.19-34.4 168.19-17.2L168.19-17.2Q168.19 0 150.14 0L150.14 0 135.24 0 135.24-34.4 150.14-34.4ZM146.29-26.15L146.29-8.25 149.94-8.25Q156.89-8.25 156.89-15.7L156.89-15.7 156.89-18.7Q156.89-26.15 149.94-26.15L149.94-26.15 146.29-26.15ZM187.09-27Q194.34-27 198.16-23.6 201.99-20.2 201.99-13.2L201.99-13.2 201.99-11.5 182.19-11.5Q182.19-8.65 183.46-7.2 184.74-5.75 187.49-5.75L187.49-5.75Q189.99-5.75 191.16-6.8 192.34-7.85 192.34-9.6L192.34-9.6 201.99-9.6Q201.99-4.8 198.34-2.1 194.69 0.6 187.69 0.6L187.69 0.6Q180.34 0.6 176.29-2.83 172.24-6.25 172.24-13.2L172.24-13.2Q172.24-20 176.19-23.5 180.14-27 187.09-27L187.09-27ZM187.49-20.65Q182.79-20.65 182.24-16.2L182.24-16.2 191.94-16.2Q191.94-18.25 190.76-19.45 189.59-20.65 187.49-20.65L187.49-20.65ZM222.94 0L212.49 0 202.49-26.4 213.19-26.4 218.04-9.95 218.39-9.95 223.24-26.4 233.04-26.4 222.94 0ZM248.38-27Q255.63-27 259.46-23.6 263.28-20.2 263.28-13.2L263.28-13.2 263.28-11.5 243.48-11.5Q243.48-8.65 244.76-7.2 246.03-5.75 248.78-5.75L248.78-5.75Q251.28-5.75 252.46-6.8 253.63-7.85 253.63-9.6L253.63-9.6 263.28-9.6Q263.28-4.8 259.63-2.1 255.98 0.6 248.98 0.6L248.98 0.6Q241.63 0.6 237.58-2.83 233.53-6.25 233.53-13.2L233.53-13.2Q233.53-20 237.48-23.5 241.43-27 248.38-27L248.38-27ZM248.78-20.65Q244.08-20.65 243.53-16.2L243.53-16.2 253.23-16.2Q253.23-18.25 252.06-19.45 250.88-20.65 248.78-20.65L248.78-20.65ZM278.38 0L268.43 0 268.43-36.25 278.38-36.25 278.38 0ZM298.38-27Q305.33-27 309.3-23.48 313.28-19.95 313.28-13.2L313.28-13.2Q313.28-6.45 309.3-2.93 305.33 0.6 298.38 0.6L298.38 0.6Q291.43 0.6 287.48-2.9 283.53-6.4 283.53-13.2L283.53-13.2Q283.53-20 287.48-23.5 291.43-27 298.38-27L298.38-27ZM298.38-20.25Q293.48-20.25 293.48-14.6L293.48-14.6 293.48-11.75Q293.48-6.15 298.38-6.15L298.38-6.15Q303.33-6.15 303.33-11.75L303.33-11.75 303.33-14.6Q303.33-20.25 298.38-20.25L298.38-20.25ZM335.48-27Q340.83-27 343.73-23.5 346.63-20 346.63-13.15L346.63-13.15Q346.63-6.35 343.73-2.88 340.83 0.6 335.48 0.6L335.48 0.6Q330.88 0.6 328.08-2.4L328.08-2.4 328.08 9.85 318.13 9.85 318.13-26.4 326.23-26.4 327.08-22.65Q329.98-27 335.48-27L335.48-27ZM332.38-19.65Q330.18-19.65 329.08-18.1 327.98-16.55 327.98-14.05L327.98-14.05 327.98-12.4Q327.98-9.9 329.08-8.33 330.18-6.75 332.38-6.75L332.38-6.75Q336.68-6.75 336.68-11.9L336.68-11.9 336.68-14.55Q336.68-19.65 332.38-19.65L332.38-19.65ZM386.47-27Q390.97-27 393.22-24.43 395.47-21.85 395.47-17.1L395.47-17.1 395.47 0 385.52 0 385.52-15.9Q385.52-17.6 384.7-18.63 383.87-19.65 382.37-19.65L382.37-19.65Q380.62-19.65 379.52-18.45 378.42-17.25 378.42-15.5L378.42-15.5 378.42 0 368.47 0 368.47-15.9Q368.47-17.6 367.65-18.63 366.82-19.65 365.32-19.65L365.32-19.65Q363.57-19.65 362.47-18.45 361.37-17.25 361.37-15.5L361.37-15.5 361.37 0 351.42 0 351.42-26.4 359.57-26.4 360.22-22.45Q361.72-24.55 364.2-25.78 366.67-27 369.42-27L369.42-27Q375.37-27 377.42-22.45L377.42-22.45Q378.97-24.55 381.4-25.78 383.82-27 386.47-27L386.47-27ZM415.07-27Q422.32-27 426.15-23.6 429.97-20.2 429.97-13.2L429.97-13.2 429.97-11.5 410.17-11.5Q410.17-8.65 411.45-7.2 412.72-5.75 415.47-5.75L415.47-5.75Q417.97-5.75 419.15-6.8 420.32-7.85 420.32-9.6L420.32-9.6 429.97-9.6Q429.97-4.8 426.32-2.1 422.67 0.6 415.67 0.6L415.67 0.6Q408.32 0.6 404.27-2.83 400.22-6.25 400.22-13.2L400.22-13.2Q400.22-20 404.17-23.5 408.12-27 415.07-27L415.07-27ZM415.47-20.65Q410.77-20.65 410.22-16.2L410.22-16.2 419.92-16.2Q419.92-18.25 418.75-19.45 417.57-20.65 415.47-20.65L415.47-20.65ZM452.97-27Q457.57-27 459.87-24.45 462.17-21.9 462.17-17.1L462.17-17.1 462.17 0 452.22 0 452.22-15.9Q452.22-17.6 451.34-18.63 450.47-19.65 448.87-19.65L448.87-19.65Q447.02-19.65 445.87-18.45 444.72-17.25 444.72-15.5L444.72-15.5 444.72 0 434.77 0 434.77-26.4 442.92-26.4 443.57-22.4Q445.12-24.5 447.64-25.75 450.17-27 452.97-27L452.97-27ZM480.12-26.4L485.72-26.4 485.72-19.65 480.12-19.65 480.12-9.6Q480.12-7.8 480.72-6.98 481.32-6.15 482.92-6.15L482.92-6.15 485.72-6.15 485.72-0.3Q484.52 0.1 482.62 0.35 480.72 0.6 479.32 0.6L479.32 0.6Q474.92 0.6 472.54-1 470.17-2.6 470.17-6.45L470.17-6.45 470.17-19.65 466.47-19.65 466.47-26.4 470.57-26.4 472.72-34.4 480.12-34.4 480.12-26.4Z" opacity="1" transform="matrix(1,0,0,1,0,0)" fill="#adbfb8" class="undefined-text-1" data-fill-palette-color="secondary" id="text-1"></path></svg></g></svg></g></svg></g></svg></g><g><svg viewBox="0 0 303.44767737528935 303.44767737528935" height="303.44767737528935" width="303.44767737528935"><g><svg></svg></g><g id="icon-0"><svg viewBox="0 0 303.44767737528935 303.44767737528935" height="303.44767737528935" width="303.44767737528935"><g><path d="M0 151.724c0-83.795 67.929-151.724 151.724-151.724 83.795 0 151.724 67.929 151.724 151.724 0 83.795-67.929 151.724-151.724 151.724-83.795 0-151.724-67.929-151.724-151.724zM151.724 284.299c73.219 0 132.575-59.356 132.575-132.575 0-73.219-59.356-132.575-132.575-132.575-73.219 0-132.575 59.356-132.575 132.575 0 73.219 59.356 132.575 132.575 132.575z" data-fill-palette-color="accent" fill="#c9efc7" stroke="transparent"></path></g><g transform="matrix(1,0,0,1,98.38291373561289,98.38291373561289)"><svg viewBox="0 0 106.68184990406357 106.68184990406357" height="106.68184990406357" width="106.68184990406357"><g><svg xmlns:x="http://ns.adobe.com/Extensibility/1.0/" xmlns:i="http://ns.adobe.com/AdobeIllustrator/10.0/" xmlns:graph="http://ns.adobe.com/Graphs/1.0/" xmlns="http://www.w3.org/2000/svg" xmlns:xlink="http://www.w3.org/1999/xlink" version="1.1" x="0" y="0" viewBox="5 5 54 54" enable-background="new 0 0 64 64" xml:space="preserve" height="106.68184990406357" width="106.68184990406357" class="icon-x-0" data-fill-palette-color="accent" id="x-0"><g fill="#c9efc7" data-fill-palette-color="accent"><path d="M32 5C17.112 5 5 17.112 5 32s12.112 27 27 27 27-12.112 27-27S46.888 5 32 5zM51.77 47.275c-2.293-1.221-5.075-2.225-8.159-2.948 0.822-3.401 1.31-7.233 1.378-11.327h11.986C56.763 38.362 54.854 43.294 51.77 47.275zM7.025 33h4.144c0.428 1.357 1.684 2.351 3.181 2.351 1.537 0 2.822-1.046 3.215-2.459C17.698 32.956 17.842 33 18 33h1.012c0.068 4.034 0.542 7.816 1.343 11.181-3.115 0.679-5.946 1.638-8.326 2.838C9.062 43.083 7.233 38.247 7.025 33zM12.076 16.921c2.31 1.303 5.112 2.353 8.226 3.115-0.77 3.31-1.224 7.016-1.29 10.964H18c-0.158 0-0.302 0.044-0.435 0.109-0.393-1.414-1.678-2.459-3.215-2.459-1.497 0-2.753 0.993-3.181 2.351H7.025C7.234 25.726 9.082 20.868 12.076 16.921zM32 25c0.551 0 1 0.449 1 1s-0.449 1-1 1-1-0.449-1-1S31.449 25 32 25zM33 28.816c1.161-0.415 2-1.514 2-2.816s-0.839-2.401-2-2.816v-1.732c3.021-0.016 5.976-0.278 8.766-0.749 0.72 3.132 1.155 6.626 1.223 10.297H33V28.816zM33 19.452V7.113c3.437 0.743 6.471 5.258 8.271 11.65C38.643 19.196 35.854 19.436 33 19.452zM31 7.113v12.303c-2.863-0.087-5.625-0.39-8.203-0.891C24.605 12.259 27.607 7.846 31 7.113zM31 21.432v1.752c-1.162 0.415-2 1.514-2 2.816s0.838 2.401 2 2.815V31h-9.988c0.069-3.76 0.523-7.335 1.275-10.526C25.028 21.015 27.967 21.343 31 21.432zM15.701 32c0 0.745-0.606 1.351-1.351 1.351S13 32.745 13 32s0.606-1.351 1.351-1.351S15.701 31.255 15.701 32zM21.012 33H31v10.018c-2.985 0.034-5.9 0.304-8.65 0.781C21.56 40.541 21.083 36.866 21.012 33zM31 45.017v11.87c-3.347-0.723-6.313-5.023-8.129-11.152C25.453 45.297 28.191 45.05 31 45.017zM33 56.887v-11.86c0.064 0.002 0.13 0.002 0.193 0.004C33.616 46.177 34.709 47 36 47c1.125 0 2.095-0.629 2.608-1.548 0.846 0.111 1.676 0.241 2.489 0.392C39.279 51.916 36.327 56.168 33 56.887zM36 45c-0.552 0-1-0.448-1-1s0.448-1 1-1 1 0.448 1 1S36.552 45 36 45zM38.947 43.481C38.7 42.074 37.477 41 36 41c-1.313 0-2.42 0.854-2.825 2.03-0.058-0.001-0.116-0.002-0.175-0.003V33h9.988c-0.071 3.91-0.56 7.623-1.365 10.908C40.748 43.742 39.855 43.602 38.947 43.481zM44.988 31c-0.064-3.829-0.493-7.432-1.222-10.666 3.201-0.68 6.104-1.659 8.542-2.887 2.766 3.849 4.467 8.51 4.666 13.552H44.988zM51.047 15.833c-2.235 1.081-4.864 1.953-7.767 2.563-1.282-4.651-3.211-8.394-5.552-10.727C43.007 8.913 47.645 11.83 51.047 15.833zM26.272 7.67c-2.29 2.282-4.186 5.909-5.468 10.419-2.8-0.683-5.322-1.606-7.424-2.749C16.739 11.59 21.211 8.861 26.272 7.67zM13.338 48.611c2.173-1.047 4.719-1.893 7.522-2.498 1.281 4.417 3.156 7.969 5.412 10.217C21.189 55.134 16.702 52.386 13.338 48.611zM37.729 56.33c2.23-2.223 4.088-5.723 5.367-10.071 2.77 0.646 5.274 1.522 7.361 2.585C47.117 52.5 42.707 55.158 37.729 56.33z" fill="#c9efc7" data-fill-palette-color="accent"></path></g></svg></g></svg></g></svg></g></svg></g></svg></g></svg><rect width="395.5199999999999" height="150.17029377116864" fill="none" stroke="none" visibility="hidden"></rect></g></svg></g></svg>